<mxfile host="app.diagrams.net" modified="2022-01-14T06:46:41.603Z" agent="5.0 (Windows NT 10.0; Win64; x64) AppleWebKit/537.36 (KHTML, like Gecko) Chrome/97.0.4692.71 Safari/537.36" etag="Da-1SS4SZdeeza__L7Ym" version="16.2.2" type="github">
  <diagram id="b1va3Egsf3m1lAK9kykp" name="第 1 页">
    <mxGraphModel dx="1422" dy="762" grid="1" gridSize="10" guides="1" tooltips="1" connect="1" arrows="1" fold="1" page="1" pageScale="1" pageWidth="3300" pageHeight="4681" math="0" shadow="0">
      <root>
        <mxCell id="0" />
        <mxCell id="1" parent="0" />
        <mxCell id="-wT7ybmklyHehrjQJ8Dp-2" value="" style="shape=table;html=1;whiteSpace=wrap;startSize=0;container=1;collapsible=0;childLayout=tableLayout;" vertex="1" parent="1">
          <mxGeometry x="200" y="200" width="816" height="234" as="geometry" />
        </mxCell>
        <mxCell id="-wT7ybmklyHehrjQJ8Dp-66" style="shape=tableRow;horizontal=0;startSize=0;swimlaneHead=0;swimlaneBody=0;top=0;left=0;bottom=0;right=0;collapsible=0;dropTarget=0;fillColor=none;points=[[0,0.5],[1,0.5]];portConstraint=eastwest;" vertex="1" parent="-wT7ybmklyHehrjQJ8Dp-2">
          <mxGeometry width="816" height="47" as="geometry" />
        </mxCell>
        <mxCell id="-wT7ybmklyHehrjQJ8Dp-67" value="0,0" style="shape=partialRectangle;html=1;whiteSpace=wrap;connectable=0;fillColor=none;top=0;left=0;bottom=0;right=0;overflow=hidden;" vertex="1" parent="-wT7ybmklyHehrjQJ8Dp-66">
          <mxGeometry width="163" height="47" as="geometry">
            <mxRectangle width="163" height="47" as="alternateBounds" />
          </mxGeometry>
        </mxCell>
        <mxCell id="-wT7ybmklyHehrjQJ8Dp-68" value="0,1&amp;nbsp;" style="shape=partialRectangle;html=1;whiteSpace=wrap;connectable=0;fillColor=none;top=0;left=0;bottom=0;right=0;overflow=hidden;shadow=0;dashed=1;dashPattern=1 2;strokeWidth=3;" vertex="1" parent="-wT7ybmklyHehrjQJ8Dp-66">
          <mxGeometry x="163" width="163" height="47" as="geometry">
            <mxRectangle width="163" height="47" as="alternateBounds" />
          </mxGeometry>
        </mxCell>
        <mxCell id="-wT7ybmklyHehrjQJ8Dp-69" value="0,2" style="shape=partialRectangle;html=1;whiteSpace=wrap;connectable=0;fillColor=none;top=0;left=0;bottom=0;right=0;overflow=hidden;" vertex="1" parent="-wT7ybmklyHehrjQJ8Dp-66">
          <mxGeometry x="326" width="164" height="47" as="geometry">
            <mxRectangle width="164" height="47" as="alternateBounds" />
          </mxGeometry>
        </mxCell>
        <mxCell id="-wT7ybmklyHehrjQJ8Dp-70" value="0,3" style="shape=partialRectangle;html=1;whiteSpace=wrap;connectable=0;fillColor=none;top=0;left=0;bottom=0;right=0;overflow=hidden;" vertex="1" parent="-wT7ybmklyHehrjQJ8Dp-66">
          <mxGeometry x="490" width="163" height="47" as="geometry">
            <mxRectangle width="163" height="47" as="alternateBounds" />
          </mxGeometry>
        </mxCell>
        <mxCell id="-wT7ybmklyHehrjQJ8Dp-71" value="0,4" style="shape=partialRectangle;html=1;whiteSpace=wrap;connectable=0;fillColor=none;top=0;left=0;bottom=0;right=0;overflow=hidden;" vertex="1" parent="-wT7ybmklyHehrjQJ8Dp-66">
          <mxGeometry x="653" width="163" height="47" as="geometry">
            <mxRectangle width="163" height="47" as="alternateBounds" />
          </mxGeometry>
        </mxCell>
        <mxCell id="-wT7ybmklyHehrjQJ8Dp-3" value="" style="shape=tableRow;horizontal=0;startSize=0;swimlaneHead=0;swimlaneBody=0;top=0;left=0;bottom=0;right=0;collapsible=0;dropTarget=0;fillColor=none;points=[[0,0.5],[1,0.5]];portConstraint=eastwest;" vertex="1" parent="-wT7ybmklyHehrjQJ8Dp-2">
          <mxGeometry y="47" width="816" height="47" as="geometry" />
        </mxCell>
        <mxCell id="-wT7ybmklyHehrjQJ8Dp-54" value="1,0" style="shape=partialRectangle;html=1;whiteSpace=wrap;connectable=0;fillColor=none;top=0;left=0;bottom=0;right=0;overflow=hidden;" vertex="1" parent="-wT7ybmklyHehrjQJ8Dp-3">
          <mxGeometry width="163" height="47" as="geometry">
            <mxRectangle width="163" height="47" as="alternateBounds" />
          </mxGeometry>
        </mxCell>
        <mxCell id="-wT7ybmklyHehrjQJ8Dp-4" value="1,1" style="shape=partialRectangle;html=1;whiteSpace=wrap;connectable=0;fillColor=#dae8fc;top=0;left=0;bottom=0;right=0;overflow=hidden;strokeColor=#6c8ebf;shadow=0;dashed=1;dashPattern=1 2;strokeWidth=3;" vertex="1" parent="-wT7ybmklyHehrjQJ8Dp-3">
          <mxGeometry x="163" width="163" height="47" as="geometry">
            <mxRectangle width="163" height="47" as="alternateBounds" />
          </mxGeometry>
        </mxCell>
        <mxCell id="-wT7ybmklyHehrjQJ8Dp-5" value="1,2" style="shape=partialRectangle;html=1;whiteSpace=wrap;connectable=0;fillColor=#dae8fc;top=0;left=0;bottom=0;right=0;overflow=hidden;strokeColor=#6c8ebf;" vertex="1" parent="-wT7ybmklyHehrjQJ8Dp-3">
          <mxGeometry x="326" width="164" height="47" as="geometry">
            <mxRectangle width="164" height="47" as="alternateBounds" />
          </mxGeometry>
        </mxCell>
        <mxCell id="-wT7ybmklyHehrjQJ8Dp-6" value="1,3" style="shape=partialRectangle;html=1;whiteSpace=wrap;connectable=0;fillColor=#dae8fc;top=0;left=0;bottom=0;right=0;overflow=hidden;strokeColor=#6c8ebf;" vertex="1" parent="-wT7ybmklyHehrjQJ8Dp-3">
          <mxGeometry x="490" width="163" height="47" as="geometry">
            <mxRectangle width="163" height="47" as="alternateBounds" />
          </mxGeometry>
        </mxCell>
        <mxCell id="-wT7ybmklyHehrjQJ8Dp-62" style="shape=partialRectangle;html=1;whiteSpace=wrap;connectable=0;fillColor=none;top=0;left=0;bottom=0;right=0;overflow=hidden;" vertex="1" parent="-wT7ybmklyHehrjQJ8Dp-3">
          <mxGeometry x="653" width="163" height="47" as="geometry">
            <mxRectangle width="163" height="47" as="alternateBounds" />
          </mxGeometry>
        </mxCell>
        <mxCell id="-wT7ybmklyHehrjQJ8Dp-57" style="shape=tableRow;horizontal=0;startSize=0;swimlaneHead=0;swimlaneBody=0;top=0;left=0;bottom=0;right=0;collapsible=0;dropTarget=0;fillColor=none;points=[[0,0.5],[1,0.5]];portConstraint=eastwest;" vertex="1" parent="-wT7ybmklyHehrjQJ8Dp-2">
          <mxGeometry y="94" width="816" height="47" as="geometry" />
        </mxCell>
        <mxCell id="-wT7ybmklyHehrjQJ8Dp-58" value="2,0" style="shape=partialRectangle;html=1;whiteSpace=wrap;connectable=0;fillColor=none;top=0;left=0;bottom=0;right=0;overflow=hidden;" vertex="1" parent="-wT7ybmklyHehrjQJ8Dp-57">
          <mxGeometry width="163" height="47" as="geometry">
            <mxRectangle width="163" height="47" as="alternateBounds" />
          </mxGeometry>
        </mxCell>
        <mxCell id="-wT7ybmklyHehrjQJ8Dp-59" value="2,1" style="shape=partialRectangle;html=1;whiteSpace=wrap;connectable=0;fillColor=#dae8fc;top=0;left=0;bottom=0;right=0;overflow=hidden;strokeColor=#6c8ebf;shadow=0;dashed=1;dashPattern=1 2;strokeWidth=3;" vertex="1" parent="-wT7ybmklyHehrjQJ8Dp-57">
          <mxGeometry x="163" width="163" height="47" as="geometry">
            <mxRectangle width="163" height="47" as="alternateBounds" />
          </mxGeometry>
        </mxCell>
        <mxCell id="-wT7ybmklyHehrjQJ8Dp-60" value="2,2" style="shape=partialRectangle;html=1;whiteSpace=wrap;connectable=0;fillColor=#dae8fc;top=0;left=0;bottom=0;right=0;overflow=hidden;strokeColor=#6c8ebf;" vertex="1" parent="-wT7ybmklyHehrjQJ8Dp-57">
          <mxGeometry x="326" width="164" height="47" as="geometry">
            <mxRectangle width="164" height="47" as="alternateBounds" />
          </mxGeometry>
        </mxCell>
        <mxCell id="-wT7ybmklyHehrjQJ8Dp-61" value="2,3" style="shape=partialRectangle;html=1;whiteSpace=wrap;connectable=0;fillColor=#dae8fc;top=0;left=0;bottom=0;right=0;overflow=hidden;strokeColor=#6c8ebf;" vertex="1" parent="-wT7ybmklyHehrjQJ8Dp-57">
          <mxGeometry x="490" width="163" height="47" as="geometry">
            <mxRectangle width="163" height="47" as="alternateBounds" />
          </mxGeometry>
        </mxCell>
        <mxCell id="-wT7ybmklyHehrjQJ8Dp-63" style="shape=partialRectangle;html=1;whiteSpace=wrap;connectable=0;fillColor=none;top=0;left=0;bottom=0;right=0;overflow=hidden;" vertex="1" parent="-wT7ybmklyHehrjQJ8Dp-57">
          <mxGeometry x="653" width="163" height="47" as="geometry">
            <mxRectangle width="163" height="47" as="alternateBounds" />
          </mxGeometry>
        </mxCell>
        <mxCell id="-wT7ybmklyHehrjQJ8Dp-7" value="" style="shape=tableRow;horizontal=0;startSize=0;swimlaneHead=0;swimlaneBody=0;top=0;left=0;bottom=0;right=0;collapsible=0;dropTarget=0;fillColor=none;points=[[0,0.5],[1,0.5]];portConstraint=eastwest;" vertex="1" parent="-wT7ybmklyHehrjQJ8Dp-2">
          <mxGeometry y="141" width="816" height="46" as="geometry" />
        </mxCell>
        <mxCell id="-wT7ybmklyHehrjQJ8Dp-55" value="3,0" style="shape=partialRectangle;html=1;whiteSpace=wrap;connectable=0;fillColor=none;top=0;left=0;bottom=0;right=0;overflow=hidden;" vertex="1" parent="-wT7ybmklyHehrjQJ8Dp-7">
          <mxGeometry width="163" height="46" as="geometry">
            <mxRectangle width="163" height="46" as="alternateBounds" />
          </mxGeometry>
        </mxCell>
        <mxCell id="-wT7ybmklyHehrjQJ8Dp-8" value="" style="shape=partialRectangle;html=1;whiteSpace=wrap;connectable=0;fillColor=none;top=0;left=0;bottom=0;right=0;overflow=hidden;shadow=0;dashed=1;dashPattern=1 2;strokeWidth=3;" vertex="1" parent="-wT7ybmklyHehrjQJ8Dp-7">
          <mxGeometry x="163" width="163" height="46" as="geometry">
            <mxRectangle width="163" height="46" as="alternateBounds" />
          </mxGeometry>
        </mxCell>
        <mxCell id="-wT7ybmklyHehrjQJ8Dp-9" value="" style="shape=partialRectangle;html=1;whiteSpace=wrap;connectable=0;fillColor=none;top=0;left=0;bottom=0;right=0;overflow=hidden;" vertex="1" parent="-wT7ybmklyHehrjQJ8Dp-7">
          <mxGeometry x="326" width="164" height="46" as="geometry">
            <mxRectangle width="164" height="46" as="alternateBounds" />
          </mxGeometry>
        </mxCell>
        <mxCell id="-wT7ybmklyHehrjQJ8Dp-10" value="" style="shape=partialRectangle;html=1;whiteSpace=wrap;connectable=0;fillColor=none;top=0;left=0;bottom=0;right=0;overflow=hidden;" vertex="1" parent="-wT7ybmklyHehrjQJ8Dp-7">
          <mxGeometry x="490" width="163" height="46" as="geometry">
            <mxRectangle width="163" height="46" as="alternateBounds" />
          </mxGeometry>
        </mxCell>
        <mxCell id="-wT7ybmklyHehrjQJ8Dp-64" style="shape=partialRectangle;html=1;whiteSpace=wrap;connectable=0;fillColor=none;top=0;left=0;bottom=0;right=0;overflow=hidden;" vertex="1" parent="-wT7ybmklyHehrjQJ8Dp-7">
          <mxGeometry x="653" width="163" height="46" as="geometry">
            <mxRectangle width="163" height="46" as="alternateBounds" />
          </mxGeometry>
        </mxCell>
        <mxCell id="-wT7ybmklyHehrjQJ8Dp-11" value="" style="shape=tableRow;horizontal=0;startSize=0;swimlaneHead=0;swimlaneBody=0;top=0;left=0;bottom=0;right=0;collapsible=0;dropTarget=0;fillColor=none;points=[[0,0.5],[1,0.5]];portConstraint=eastwest;" vertex="1" parent="-wT7ybmklyHehrjQJ8Dp-2">
          <mxGeometry y="187" width="816" height="47" as="geometry" />
        </mxCell>
        <mxCell id="-wT7ybmklyHehrjQJ8Dp-56" value="4,0" style="shape=partialRectangle;html=1;whiteSpace=wrap;connectable=0;fillColor=none;top=0;left=0;bottom=0;right=0;overflow=hidden;" vertex="1" parent="-wT7ybmklyHehrjQJ8Dp-11">
          <mxGeometry width="163" height="47" as="geometry">
            <mxRectangle width="163" height="47" as="alternateBounds" />
          </mxGeometry>
        </mxCell>
        <mxCell id="-wT7ybmklyHehrjQJ8Dp-12" value="" style="shape=partialRectangle;html=1;whiteSpace=wrap;connectable=0;fillColor=none;top=0;left=0;bottom=0;right=0;overflow=hidden;shadow=0;dashed=1;dashPattern=1 2;strokeWidth=3;" vertex="1" parent="-wT7ybmklyHehrjQJ8Dp-11">
          <mxGeometry x="163" width="163" height="47" as="geometry">
            <mxRectangle width="163" height="47" as="alternateBounds" />
          </mxGeometry>
        </mxCell>
        <mxCell id="-wT7ybmklyHehrjQJ8Dp-13" value="" style="shape=partialRectangle;html=1;whiteSpace=wrap;connectable=0;fillColor=none;top=0;left=0;bottom=0;right=0;overflow=hidden;" vertex="1" parent="-wT7ybmklyHehrjQJ8Dp-11">
          <mxGeometry x="326" width="164" height="47" as="geometry">
            <mxRectangle width="164" height="47" as="alternateBounds" />
          </mxGeometry>
        </mxCell>
        <mxCell id="-wT7ybmklyHehrjQJ8Dp-14" value="" style="shape=partialRectangle;html=1;whiteSpace=wrap;connectable=0;fillColor=none;top=0;left=0;bottom=0;right=0;overflow=hidden;pointerEvents=1;" vertex="1" parent="-wT7ybmklyHehrjQJ8Dp-11">
          <mxGeometry x="490" width="163" height="47" as="geometry">
            <mxRectangle width="163" height="47" as="alternateBounds" />
          </mxGeometry>
        </mxCell>
        <mxCell id="-wT7ybmklyHehrjQJ8Dp-65" style="shape=partialRectangle;html=1;whiteSpace=wrap;connectable=0;fillColor=none;top=0;left=0;bottom=0;right=0;overflow=hidden;pointerEvents=1;" vertex="1" parent="-wT7ybmklyHehrjQJ8Dp-11">
          <mxGeometry x="653" width="163" height="47" as="geometry">
            <mxRectangle width="163" height="47" as="alternateBounds" />
          </mxGeometry>
        </mxCell>
        <mxCell id="-wT7ybmklyHehrjQJ8Dp-72" value="1,1" style="shape=partialRectangle;html=1;whiteSpace=wrap;connectable=0;fillColor=#dae8fc;top=0;left=0;bottom=0;right=0;overflow=hidden;strokeColor=#6c8ebf;shadow=0;dashed=1;dashPattern=1 2;strokeWidth=3;" vertex="1" parent="1">
          <mxGeometry x="260" y="520" width="163" height="47" as="geometry">
            <mxRectangle width="163" height="47" as="alternateBounds" />
          </mxGeometry>
        </mxCell>
        <mxCell id="-wT7ybmklyHehrjQJ8Dp-73" value="1,2" style="shape=partialRectangle;html=1;whiteSpace=wrap;connectable=0;fillColor=#dae8fc;top=0;left=0;bottom=0;right=0;overflow=hidden;strokeColor=#6c8ebf;" vertex="1" parent="1">
          <mxGeometry x="423" y="520" width="164" height="47" as="geometry">
            <mxRectangle width="164" height="47" as="alternateBounds" />
          </mxGeometry>
        </mxCell>
        <mxCell id="-wT7ybmklyHehrjQJ8Dp-74" value="1,3" style="shape=partialRectangle;html=1;whiteSpace=wrap;connectable=0;fillColor=#dae8fc;top=0;left=0;bottom=0;right=0;overflow=hidden;strokeColor=#6c8ebf;" vertex="1" parent="1">
          <mxGeometry x="587" y="520" width="163" height="47" as="geometry">
            <mxRectangle width="163" height="47" as="alternateBounds" />
          </mxGeometry>
        </mxCell>
        <mxCell id="-wT7ybmklyHehrjQJ8Dp-75" value="2,1" style="shape=partialRectangle;html=1;whiteSpace=wrap;connectable=0;fillColor=#dae8fc;top=0;left=0;bottom=0;right=0;overflow=hidden;strokeColor=#6c8ebf;shadow=0;dashed=1;dashPattern=1 2;strokeWidth=3;" vertex="1" parent="1">
          <mxGeometry x="260" y="567" width="163" height="47" as="geometry">
            <mxRectangle width="163" height="47" as="alternateBounds" />
          </mxGeometry>
        </mxCell>
        <mxCell id="-wT7ybmklyHehrjQJ8Dp-76" value="2,2" style="shape=partialRectangle;html=1;whiteSpace=wrap;connectable=0;fillColor=#dae8fc;top=0;left=0;bottom=0;right=0;overflow=hidden;strokeColor=#6c8ebf;" vertex="1" parent="1">
          <mxGeometry x="423" y="567" width="164" height="47" as="geometry">
            <mxRectangle width="164" height="47" as="alternateBounds" />
          </mxGeometry>
        </mxCell>
        <mxCell id="-wT7ybmklyHehrjQJ8Dp-77" value="2,3" style="shape=partialRectangle;html=1;whiteSpace=wrap;connectable=0;fillColor=#dae8fc;top=0;left=0;bottom=0;right=0;overflow=hidden;strokeColor=#6c8ebf;" vertex="1" parent="1">
          <mxGeometry x="587" y="567" width="163" height="47" as="geometry">
            <mxRectangle width="163" height="47" as="alternateBounds" />
          </mxGeometry>
        </mxCell>
        <mxCell id="-wT7ybmklyHehrjQJ8Dp-78" value="" style="shape=flexArrow;endArrow=classic;html=1;rounded=0;" edge="1" parent="1">
          <mxGeometry width="50" height="50" relative="1" as="geometry">
            <mxPoint x="390" y="590" as="sourcePoint" />
            <mxPoint x="390" y="540" as="targetPoint" />
          </mxGeometry>
        </mxCell>
        <mxCell id="-wT7ybmklyHehrjQJ8Dp-79" value="" style="shape=flexArrow;endArrow=classic;html=1;rounded=0;" edge="1" parent="1">
          <mxGeometry width="50" height="50" relative="1" as="geometry">
            <mxPoint x="550" y="590" as="sourcePoint" />
            <mxPoint x="550" y="540" as="targetPoint" />
          </mxGeometry>
        </mxCell>
        <mxCell id="-wT7ybmklyHehrjQJ8Dp-80" value="" style="shape=flexArrow;endArrow=classic;html=1;rounded=0;" edge="1" parent="1">
          <mxGeometry width="50" height="50" relative="1" as="geometry">
            <mxPoint x="720" y="590" as="sourcePoint" />
            <mxPoint x="720" y="540" as="targetPoint" />
          </mxGeometry>
        </mxCell>
        <mxCell id="-wT7ybmklyHehrjQJ8Dp-81" value="" style="shape=flexArrow;endArrow=classic;html=1;rounded=0;fillColor=#f8cecc;strokeColor=#b85450;" edge="1" parent="1">
          <mxGeometry width="50" height="50" relative="1" as="geometry">
            <mxPoint x="450" y="543" as="sourcePoint" />
            <mxPoint x="400" y="543" as="targetPoint" />
          </mxGeometry>
        </mxCell>
        <mxCell id="-wT7ybmklyHehrjQJ8Dp-82" value="" style="shape=flexArrow;endArrow=classic;html=1;rounded=0;fillColor=#f8cecc;strokeColor=#b85450;" edge="1" parent="1">
          <mxGeometry width="50" height="50" relative="1" as="geometry">
            <mxPoint x="620" y="543" as="sourcePoint" />
            <mxPoint x="570" y="543" as="targetPoint" />
          </mxGeometry>
        </mxCell>
        <mxCell id="-wT7ybmklyHehrjQJ8Dp-83" value="" style="shape=table;html=1;whiteSpace=wrap;startSize=0;container=1;collapsible=0;childLayout=tableLayout;" vertex="1" parent="1">
          <mxGeometry x="200" y="660" width="816" height="234" as="geometry" />
        </mxCell>
        <mxCell id="-wT7ybmklyHehrjQJ8Dp-84" style="shape=tableRow;horizontal=0;startSize=0;swimlaneHead=0;swimlaneBody=0;top=0;left=0;bottom=0;right=0;collapsible=0;dropTarget=0;fillColor=none;points=[[0,0.5],[1,0.5]];portConstraint=eastwest;" vertex="1" parent="-wT7ybmklyHehrjQJ8Dp-83">
          <mxGeometry width="816" height="47" as="geometry" />
        </mxCell>
        <mxCell id="-wT7ybmklyHehrjQJ8Dp-85" value="0,0" style="shape=partialRectangle;html=1;whiteSpace=wrap;connectable=0;fillColor=none;top=0;left=0;bottom=0;right=0;overflow=hidden;" vertex="1" parent="-wT7ybmklyHehrjQJ8Dp-84">
          <mxGeometry width="163" height="47" as="geometry">
            <mxRectangle width="163" height="47" as="alternateBounds" />
          </mxGeometry>
        </mxCell>
        <mxCell id="-wT7ybmklyHehrjQJ8Dp-86" value="0,1&amp;nbsp;" style="shape=partialRectangle;html=1;whiteSpace=wrap;connectable=0;fillColor=none;top=0;left=0;bottom=0;right=0;overflow=hidden;shadow=0;dashed=1;dashPattern=1 2;strokeWidth=3;" vertex="1" parent="-wT7ybmklyHehrjQJ8Dp-84">
          <mxGeometry x="163" width="163" height="47" as="geometry">
            <mxRectangle width="163" height="47" as="alternateBounds" />
          </mxGeometry>
        </mxCell>
        <mxCell id="-wT7ybmklyHehrjQJ8Dp-87" value="0,2" style="shape=partialRectangle;html=1;whiteSpace=wrap;connectable=0;fillColor=none;top=0;left=0;bottom=0;right=0;overflow=hidden;" vertex="1" parent="-wT7ybmklyHehrjQJ8Dp-84">
          <mxGeometry x="326" width="164" height="47" as="geometry">
            <mxRectangle width="164" height="47" as="alternateBounds" />
          </mxGeometry>
        </mxCell>
        <mxCell id="-wT7ybmklyHehrjQJ8Dp-88" value="0,3" style="shape=partialRectangle;html=1;whiteSpace=wrap;connectable=0;fillColor=none;top=0;left=0;bottom=0;right=0;overflow=hidden;" vertex="1" parent="-wT7ybmklyHehrjQJ8Dp-84">
          <mxGeometry x="490" width="163" height="47" as="geometry">
            <mxRectangle width="163" height="47" as="alternateBounds" />
          </mxGeometry>
        </mxCell>
        <mxCell id="-wT7ybmklyHehrjQJ8Dp-89" value="0,4" style="shape=partialRectangle;html=1;whiteSpace=wrap;connectable=0;fillColor=none;top=0;left=0;bottom=0;right=0;overflow=hidden;" vertex="1" parent="-wT7ybmklyHehrjQJ8Dp-84">
          <mxGeometry x="653" width="163" height="47" as="geometry">
            <mxRectangle width="163" height="47" as="alternateBounds" />
          </mxGeometry>
        </mxCell>
        <mxCell id="-wT7ybmklyHehrjQJ8Dp-90" value="" style="shape=tableRow;horizontal=0;startSize=0;swimlaneHead=0;swimlaneBody=0;top=0;left=0;bottom=0;right=0;collapsible=0;dropTarget=0;fillColor=none;points=[[0,0.5],[1,0.5]];portConstraint=eastwest;" vertex="1" parent="-wT7ybmklyHehrjQJ8Dp-83">
          <mxGeometry y="47" width="816" height="47" as="geometry" />
        </mxCell>
        <mxCell id="-wT7ybmklyHehrjQJ8Dp-91" value="1,0" style="shape=partialRectangle;html=1;whiteSpace=wrap;connectable=0;fillColor=none;top=0;left=0;bottom=0;right=0;overflow=hidden;" vertex="1" parent="-wT7ybmklyHehrjQJ8Dp-90">
          <mxGeometry width="163" height="47" as="geometry">
            <mxRectangle width="163" height="47" as="alternateBounds" />
          </mxGeometry>
        </mxCell>
        <mxCell id="-wT7ybmklyHehrjQJ8Dp-92" value="1,1" style="shape=partialRectangle;html=1;whiteSpace=wrap;connectable=0;fillColor=#dae8fc;top=0;left=0;bottom=0;right=0;overflow=hidden;strokeColor=#6c8ebf;shadow=0;dashed=1;dashPattern=1 2;strokeWidth=3;" vertex="1" parent="-wT7ybmklyHehrjQJ8Dp-90">
          <mxGeometry x="163" width="163" height="47" as="geometry">
            <mxRectangle width="163" height="47" as="alternateBounds" />
          </mxGeometry>
        </mxCell>
        <mxCell id="-wT7ybmklyHehrjQJ8Dp-93" value="1,2" style="shape=partialRectangle;html=1;whiteSpace=wrap;connectable=0;fillColor=#dae8fc;top=0;left=0;bottom=0;right=0;overflow=hidden;strokeColor=#6c8ebf;" vertex="1" parent="-wT7ybmklyHehrjQJ8Dp-90">
          <mxGeometry x="326" width="164" height="47" as="geometry">
            <mxRectangle width="164" height="47" as="alternateBounds" />
          </mxGeometry>
        </mxCell>
        <mxCell id="-wT7ybmklyHehrjQJ8Dp-94" value="1,3" style="shape=partialRectangle;html=1;whiteSpace=wrap;connectable=0;fillColor=#dae8fc;top=0;left=0;bottom=0;right=0;overflow=hidden;strokeColor=#6c8ebf;" vertex="1" parent="-wT7ybmklyHehrjQJ8Dp-90">
          <mxGeometry x="490" width="163" height="47" as="geometry">
            <mxRectangle width="163" height="47" as="alternateBounds" />
          </mxGeometry>
        </mxCell>
        <mxCell id="-wT7ybmklyHehrjQJ8Dp-95" style="shape=partialRectangle;html=1;whiteSpace=wrap;connectable=0;fillColor=none;top=0;left=0;bottom=0;right=0;overflow=hidden;" vertex="1" parent="-wT7ybmklyHehrjQJ8Dp-90">
          <mxGeometry x="653" width="163" height="47" as="geometry">
            <mxRectangle width="163" height="47" as="alternateBounds" />
          </mxGeometry>
        </mxCell>
        <mxCell id="-wT7ybmklyHehrjQJ8Dp-96" style="shape=tableRow;horizontal=0;startSize=0;swimlaneHead=0;swimlaneBody=0;top=0;left=0;bottom=0;right=0;collapsible=0;dropTarget=0;fillColor=none;points=[[0,0.5],[1,0.5]];portConstraint=eastwest;" vertex="1" parent="-wT7ybmklyHehrjQJ8Dp-83">
          <mxGeometry y="94" width="816" height="47" as="geometry" />
        </mxCell>
        <mxCell id="-wT7ybmklyHehrjQJ8Dp-97" value="2,0" style="shape=partialRectangle;html=1;whiteSpace=wrap;connectable=0;fillColor=none;top=0;left=0;bottom=0;right=0;overflow=hidden;" vertex="1" parent="-wT7ybmklyHehrjQJ8Dp-96">
          <mxGeometry width="163" height="47" as="geometry">
            <mxRectangle width="163" height="47" as="alternateBounds" />
          </mxGeometry>
        </mxCell>
        <mxCell id="-wT7ybmklyHehrjQJ8Dp-98" value="2,1" style="shape=partialRectangle;html=1;whiteSpace=wrap;connectable=0;fillColor=#dae8fc;top=0;left=0;bottom=0;right=0;overflow=hidden;strokeColor=#6c8ebf;shadow=0;dashed=1;dashPattern=1 2;strokeWidth=3;" vertex="1" parent="-wT7ybmklyHehrjQJ8Dp-96">
          <mxGeometry x="163" width="163" height="47" as="geometry">
            <mxRectangle width="163" height="47" as="alternateBounds" />
          </mxGeometry>
        </mxCell>
        <mxCell id="-wT7ybmklyHehrjQJ8Dp-99" value="2,2" style="shape=partialRectangle;html=1;whiteSpace=wrap;connectable=0;fillColor=#f8cecc;top=0;left=0;bottom=0;right=0;overflow=hidden;strokeColor=#b85450;" vertex="1" parent="-wT7ybmklyHehrjQJ8Dp-96">
          <mxGeometry x="326" width="164" height="47" as="geometry">
            <mxRectangle width="164" height="47" as="alternateBounds" />
          </mxGeometry>
        </mxCell>
        <mxCell id="-wT7ybmklyHehrjQJ8Dp-100" value="2,3" style="shape=partialRectangle;html=1;whiteSpace=wrap;connectable=0;fillColor=#f8cecc;top=0;left=0;bottom=0;right=0;overflow=hidden;strokeColor=#b85450;" vertex="1" parent="-wT7ybmklyHehrjQJ8Dp-96">
          <mxGeometry x="490" width="163" height="47" as="geometry">
            <mxRectangle width="163" height="47" as="alternateBounds" />
          </mxGeometry>
        </mxCell>
        <mxCell id="-wT7ybmklyHehrjQJ8Dp-101" style="shape=partialRectangle;html=1;whiteSpace=wrap;connectable=0;fillColor=none;top=0;left=0;bottom=0;right=0;overflow=hidden;" vertex="1" parent="-wT7ybmklyHehrjQJ8Dp-96">
          <mxGeometry x="653" width="163" height="47" as="geometry">
            <mxRectangle width="163" height="47" as="alternateBounds" />
          </mxGeometry>
        </mxCell>
        <mxCell id="-wT7ybmklyHehrjQJ8Dp-102" value="" style="shape=tableRow;horizontal=0;startSize=0;swimlaneHead=0;swimlaneBody=0;top=0;left=0;bottom=0;right=0;collapsible=0;dropTarget=0;fillColor=none;points=[[0,0.5],[1,0.5]];portConstraint=eastwest;" vertex="1" parent="-wT7ybmklyHehrjQJ8Dp-83">
          <mxGeometry y="141" width="816" height="46" as="geometry" />
        </mxCell>
        <mxCell id="-wT7ybmklyHehrjQJ8Dp-103" value="3,0" style="shape=partialRectangle;html=1;whiteSpace=wrap;connectable=0;fillColor=none;top=0;left=0;bottom=0;right=0;overflow=hidden;" vertex="1" parent="-wT7ybmklyHehrjQJ8Dp-102">
          <mxGeometry width="163" height="46" as="geometry">
            <mxRectangle width="163" height="46" as="alternateBounds" />
          </mxGeometry>
        </mxCell>
        <mxCell id="-wT7ybmklyHehrjQJ8Dp-104" value="" style="shape=partialRectangle;html=1;whiteSpace=wrap;connectable=0;top=0;left=0;bottom=0;right=0;overflow=hidden;shadow=0;dashed=1;dashPattern=1 2;strokeWidth=3;" vertex="1" parent="-wT7ybmklyHehrjQJ8Dp-102">
          <mxGeometry x="163" width="163" height="46" as="geometry">
            <mxRectangle width="163" height="46" as="alternateBounds" />
          </mxGeometry>
        </mxCell>
        <mxCell id="-wT7ybmklyHehrjQJ8Dp-105" value="" style="shape=partialRectangle;html=1;whiteSpace=wrap;connectable=0;top=0;left=0;bottom=0;right=0;overflow=hidden;" vertex="1" parent="-wT7ybmklyHehrjQJ8Dp-102">
          <mxGeometry x="326" width="164" height="46" as="geometry">
            <mxRectangle width="164" height="46" as="alternateBounds" />
          </mxGeometry>
        </mxCell>
        <mxCell id="-wT7ybmklyHehrjQJ8Dp-106" value="" style="shape=partialRectangle;html=1;whiteSpace=wrap;connectable=0;top=0;left=0;bottom=0;right=0;overflow=hidden;" vertex="1" parent="-wT7ybmklyHehrjQJ8Dp-102">
          <mxGeometry x="490" width="163" height="46" as="geometry">
            <mxRectangle width="163" height="46" as="alternateBounds" />
          </mxGeometry>
        </mxCell>
        <mxCell id="-wT7ybmklyHehrjQJ8Dp-107" style="shape=partialRectangle;html=1;whiteSpace=wrap;connectable=0;fillColor=none;top=0;left=0;bottom=0;right=0;overflow=hidden;" vertex="1" parent="-wT7ybmklyHehrjQJ8Dp-102">
          <mxGeometry x="653" width="163" height="46" as="geometry">
            <mxRectangle width="163" height="46" as="alternateBounds" />
          </mxGeometry>
        </mxCell>
        <mxCell id="-wT7ybmklyHehrjQJ8Dp-108" value="" style="shape=tableRow;horizontal=0;startSize=0;swimlaneHead=0;swimlaneBody=0;top=0;left=0;bottom=0;right=0;collapsible=0;dropTarget=0;fillColor=none;points=[[0,0.5],[1,0.5]];portConstraint=eastwest;" vertex="1" parent="-wT7ybmklyHehrjQJ8Dp-83">
          <mxGeometry y="187" width="816" height="47" as="geometry" />
        </mxCell>
        <mxCell id="-wT7ybmklyHehrjQJ8Dp-109" value="4,0" style="shape=partialRectangle;html=1;whiteSpace=wrap;connectable=0;fillColor=none;top=0;left=0;bottom=0;right=0;overflow=hidden;" vertex="1" parent="-wT7ybmklyHehrjQJ8Dp-108">
          <mxGeometry width="163" height="47" as="geometry">
            <mxRectangle width="163" height="47" as="alternateBounds" />
          </mxGeometry>
        </mxCell>
        <mxCell id="-wT7ybmklyHehrjQJ8Dp-110" value="" style="shape=partialRectangle;html=1;whiteSpace=wrap;connectable=0;fillColor=none;top=0;left=0;bottom=0;right=0;overflow=hidden;shadow=0;dashed=1;dashPattern=1 2;strokeWidth=3;" vertex="1" parent="-wT7ybmklyHehrjQJ8Dp-108">
          <mxGeometry x="163" width="163" height="47" as="geometry">
            <mxRectangle width="163" height="47" as="alternateBounds" />
          </mxGeometry>
        </mxCell>
        <mxCell id="-wT7ybmklyHehrjQJ8Dp-111" value="" style="shape=partialRectangle;html=1;whiteSpace=wrap;connectable=0;fillColor=none;top=0;left=0;bottom=0;right=0;overflow=hidden;" vertex="1" parent="-wT7ybmklyHehrjQJ8Dp-108">
          <mxGeometry x="326" width="164" height="47" as="geometry">
            <mxRectangle width="164" height="47" as="alternateBounds" />
          </mxGeometry>
        </mxCell>
        <mxCell id="-wT7ybmklyHehrjQJ8Dp-112" value="" style="shape=partialRectangle;html=1;whiteSpace=wrap;connectable=0;fillColor=none;top=0;left=0;bottom=0;right=0;overflow=hidden;pointerEvents=1;" vertex="1" parent="-wT7ybmklyHehrjQJ8Dp-108">
          <mxGeometry x="490" width="163" height="47" as="geometry">
            <mxRectangle width="163" height="47" as="alternateBounds" />
          </mxGeometry>
        </mxCell>
        <mxCell id="-wT7ybmklyHehrjQJ8Dp-113" style="shape=partialRectangle;html=1;whiteSpace=wrap;connectable=0;fillColor=none;top=0;left=0;bottom=0;right=0;overflow=hidden;pointerEvents=1;" vertex="1" parent="-wT7ybmklyHehrjQJ8Dp-108">
          <mxGeometry x="653" width="163" height="47" as="geometry">
            <mxRectangle width="163" height="47" as="alternateBounds" />
          </mxGeometry>
        </mxCell>
      </root>
    </mxGraphModel>
  </diagram>
</mxfile>
